<?xml version="1.0" encoding="UTF-8" standalone="no"?>
<svg width="14px" height="21px" viewBox="0 0 14 21" version="1.1" xmlns="http://www.w3.org/2000/svg" xmlns:xlink="http://www.w3.org/1999/xlink">
    <!-- Generator: Sketch 40.1 (33804) - http://www.bohemiancoding.com/sketch -->
    <title>Artboard</title>
    <desc>Created with Sketch.</desc>
    <defs></defs>
    <g id="Page-1" stroke="none" stroke-width="1" fill="none" fill-rule="evenodd" fill-opacity="0.5">
        <g id="Artboard" fill="#424753">
            <path d="M11.6685484,8.93944165 L11.6685484,4.66741937 C11.6685484,2.22435872 9.28483068,0 6.66774196,0 C4.04998647,0 1.66693549,2.22435872 1.66693549,4.66741937 L1.66693549,8.93944165 C0.632768712,10.1149646 0,11.6512123 0,13.3354839 C0,17.0120768 2.99114904,20.0032259 6.66774196,20.0032259 C10.3436681,20.0032259 13.3354839,17.0120768 13.3354839,13.3354839 C13.3354839,11.6512123 12.7020484,10.1149646 11.6685484,8.93944165 L11.6685484,8.93944165 Z M7.00112906,13.9089097 L7.00112906,16.3359678 C7.00112906,16.5199975 6.85177164,16.6693549 6.66774196,16.6693549 C6.48304551,16.6693549 6.33435486,16.5199975 6.33435486,16.3359678 L6.33435486,13.9089097 C6.13565615,13.7935578 6.00096776,13.5808568 6.00096776,13.3354839 C6.00096776,12.9680913 6.2996826,12.6687097 6.66774196,12.6687097 C7.03513454,12.6687097 7.33451616,12.9680913 7.33451616,13.3354839 C7.33451616,13.5808568 7.19916099,13.7935578 7.00112906,13.9089097 L7.00112906,13.9089097 Z M11.0017742,8.27866842 C9.83491939,7.27717358 8.32200874,6.66774196 6.66774196,6.66774196 C5.01280841,6.66774196 3.50056453,7.27717358 2.33370969,8.27866842 L2.33370969,4.66741937 C2.33370969,2.61108775 4.44004937,0.666774196 6.66774196,0.666774196 C8.89543455,0.666774196 11.0017742,2.61108775 11.0017742,4.66741937 L11.0017742,8.27866842 L11.0017742,8.27866842 Z" id="Imported-Layers"></path>
        </g>
    </g>
</svg>